# xmcd
#
# Track frame offsets:
#	150
#	28862
#	41014
#	64909
#	77376
#	94002
#	108179
#	140303
#	165634
#	181879
#	206111
#	230839
#
# Disc length: 4228 seconds
# Revision: 7
# Processed by: cddbd v1.5.2PL0 Copyright (c) Steve Scherf et al.
# Submitted via: dBpowerAMP V12.0
#
DISCID=9d10820c
DTITLE=Luther Allison - Luther's Blues [Motown 440 013 409-2]
DYEAR=2001
DGENRE=Blues
TTITLE0=Luther's Blues
TTITLE1=Someday Pretty Baby
TTITLE2=Easy Baby
TTITLE3=Part Time Love
TTITLE4=Now You Got It
TTITLE5=K.T.
TTITLE6=Let's Have A Little Talk
TTITLE7=Driving Wheel
TTITLE8=Into My Life
TTITLE9=San-Ho-Zay*
TTITLE10=Bloomington Closing*
TTITLE11=Medley: I'm Gonna Miss My Baby/Bad News Is Coming/The Thrill Is Gone (Live At Ann Arbor)*
EXTD=
EXTT0=
EXTT1=
EXTT2=
EXTT3=
EXTT4=
EXTT5=
EXTT6=
EXTT7=
EXTT8=
EXTT9=
EXTT10=
EXTT11=
PLAYORDER=
